<?xml version="1.0" encoding="UTF-8"?>
<svg width="32" height="32" viewBox="0 0 32 32" fill="none" xmlns="http://www.w3.org/2000/svg">
  <!-- Ethereum Symbol -->
  <path d="M16 4L8 16L16 12L24 16L16 4Z" fill="#627EEA"/>
  <path d="M16 28L8 16L16 20L24 16L16 28Z" fill="#627EEA"/>
  
  <!-- Bitcoin Symbol -->
  <path d="M22 16C22 19.3137 19.3137 22 16 22C12.6863 22 10 19.3137 10 16C10 12.6863 12.6863 10 16 10C19.3137 10 22 12.6863 22 16Z" stroke="#F7931A" stroke-width="2"/>
  
  <!-- Atomic Orbit -->
  <path d="M16 2C23.732 2 30 8.26801 30 16C30 23.732 23.732 30 16 30C8.26801 30 2 23.732 2 16C2 8.26801 8.26801 2 16 2Z" stroke="#333" stroke-width="1" stroke-dasharray="4 2"/>
</svg> 